<svg xmlns="http://www.w3.org/2000/svg" xml:space="preserve" width="300.795" height="80.003" style="shape-rendering:geometricPrecision;text-rendering:geometricPrecision;image-rendering:optimizeQuality;fill-rule:evenodd;clip-rule:evenodd" viewBox="0 0 7958.54 2116.74"><defs><style>.fil0{fill:#f60}</style></defs><g id="Camada_x0020_1"><g id="_1825526263248"><path d="M970.93 1030.26V671.6c0-104.59-36.94-194.17-110.79-268.7-73.87-74.11-163.13-111.27-267.8-111.27-85.07 0-149.33 28.31-192.92 84.93v-63.04H213.63v716.74h185.79V671.6c0-53.65 18.82-99.24 56.38-136.98 37.63-37.69 83.12-56.56 136.54-56.56 53.31 0 98.81 18.87 136.44 56.56 37.67 38.22 56.32 83.81 56.32 136.98v358.66h185.83zM1235.67 403.53c-73.98 74.17-110.91 163.48-110.91 268.07 0 104.95 36.93 194.65 110.91 268.75 73.86 74.11 163.05 111.21 267.78 111.21 104.62 0 193.98-37.1 267.9-111.21 73.77-74.1 110.81-163.8 110.81-268.75 0-104.59-37.04-193.9-110.81-268.07-73.92-74.58-163.28-111.9-267.9-111.9-104.73 0-193.92 37.32-267.78 111.9zm131.3 414c-37.63-40.23-56.44-88.9-56.44-145.93 0-56.5 18.81-105.07 56.44-145.29 37.62-40.24 83.11-60.5 136.48-60.5 53.37 0 98.92 20.26 136.5 60.5 37.56 40.22 56.37 88.79 56.37 145.29 0 57.03-18.81 105.7-56.37 145.93-37.58 39.82-83.13 59.74-136.5 59.74-53.37 0-98.86-19.92-136.48-59.74zM2504.92 313.52 2333.3 643.35l-156.46-329.83h-205.07l353.08 745.74 389-745.74zM2914.38 403.53c-73.92 74.17-110.92 163.48-110.92 268.07 0 104.95 37 194.65 110.92 268.75 73.91 74.11 163.17 111.21 267.79 111.21 77.3 0 141.67-22.73 192.92-68.16v46.86h185.78V313.52h-185.78v46.91c-51.25-45.8-115.62-68.8-192.92-68.8-104.62 0-193.88 37.32-267.79 111.9zm131.36 414c-37.63-40.23-56.44-88.9-56.44-145.93 0-56.5 18.81-105.07 56.44-145.29 37.56-40.24 83.07-60.5 136.43-60.5 53.41 0 98.92 20.26 136.44 60.5 37.61 40.22 56.48 88.79 56.48 145.29v.54c0 56.81-18.87 105.16-56.48 145.39-37.52 39.82-83.03 59.74-136.44 59.74-53.36 0-98.87-19.92-136.43-59.74zM4142.76 403.53c-73.87 74.17-110.85 163.48-110.85 268.07 0 104.95 36.98 194.65 110.85 268.75 73.88 74.11 163.12 111.21 267.74 111.21 66.2 0 128.45-16.59 186.52-49.51 58.03-33.01 104.25-78.28 138.38-135.7l-156.34-93.82c-8.61 15.74-19.23 30.91-32.08 45-37.61 39.82-83.05 59.74-136.48 59.74-53.37 0-98.86-19.92-136.44-59.74-37.61-40.23-56.38-88.9-56.38-145.93 0-56.5 18.77-105.11 56.38-145.29 37.58-40.24 83.07-60.5 136.44-60.5 53.43 0 98.87 20.26 136.48 60.5 12.85 14.14 23.47 29.15 32.08 45l156.34-93.88c-34.13-57.46-80.35-102.63-138.38-135.6-58.07-33.45-120.32-50.2-186.52-50.2-104.62 0-193.86 37.32-267.74 111.9zM5280.77 58.39l-141.72 196.03h127.56l181.23-196.03h-167.07zm-306.36 345.14c-73.87 74.17-110.87 163.48-110.87 268.07 0 104.95 37 194.65 110.87 268.75 73.86 74.11 163.22 111.21 267.89 111.21 104.57 0 193.77-37.1 267.75-111.21 73.91-74.1 110.85-163.8 110.85-268.75 0-104.59-36.94-193.9-110.85-268.07-73.98-74.58-163.18-111.9-267.75-111.9-104.67 0-194.03 37.32-267.89 111.9zm131.36 414c-37.52-40.23-56.54-88.9-56.54-145.93 0-56.5 19.02-105.11 56.54-145.29 37.56-40.24 83.05-60.5 136.53-60.5 53.32 0 98.76 20.26 136.39 60.5 37.56 40.18 56.37 88.79 56.37 145.29 0 57.03-18.81 105.7-56.37 145.93-37.63 39.82-83.07 59.74-136.39 59.74-53.48 0-98.97-19.92-136.53-59.74zM5774.71 1245.06h185.83V983.4c51.21 45.43 115.52 68.16 192.88 68.16 104.62 0 193.92-37.1 267.73-111.21 73.92-74.1 110.92-163.8 110.92-268.75 0-105.11-37-194.59-110.92-268.7-73.81-74.11-163.11-111.27-267.73-111.27-77.36 0-141.67 22.75-192.88 68.22v-46.33h-185.83v931.54zm242.06-427.53c-37.52-40.23-56.23-88.58-56.23-145.39v-1.18c0-56.61 18.71-104.8 56.23-144.65 37.67-40.24 83.18-60.5 136.65-60.5 53.36 0 98.91 20.26 136.43 60.5 37.67 40.18 56.32 88.79 56.32 145.29 0 57.03-18.65 105.7-56.32 145.93-37.52 39.82-83.07 59.74-136.43 59.74-53.47 0-98.98-19.92-136.65-59.74zM6891.48 165.65v-2.5c-.3-26.07-9.7-48.29-28.22-66.91-18.51-18.53-40.77-27.96-66.65-28.26h-2.49c-25.98.3-48.14 9.73-66.71 28.26-18.71 18.92-28.05 41.55-28.05 68.16s9.34 49.3 28.05 68.13c18.87 18.92 41.43 28.29 67.96 28.29 26.42 0 49.08-9.37 67.89-28.29 18.52-18.53 27.92-40.81 28.22-66.88zm-189.07 864.5h185.85V313.48h-185.85v716.67zM7802.54 1030.15V313.52h-185.73v46.91c-51.21-45.8-115.57-68.8-192.91-68.8-104.63 0-193.88 37.32-267.74 111.9-73.93 74.17-110.87 163.48-110.87 268.07 0 104.95 36.94 194.65 110.87 268.75 73.86 74.11 163.11 111.21 267.74 111.21 77.34 0 141.7-22.73 192.91-68.16v46.75h185.73zm-515.02-212.62c-37.69-40.23-56.44-88.9-56.44-145.93 0-56.5 18.75-105.11 56.44-145.29 37.56-40.24 82.9-60.5 136.38-60.5 53.47 0 98.85 20.26 136.54 60.5 37.56 40.18 56.37 88.79 56.37 145.29v.54c0 56.81-18.81 105.16-56.37 145.39-37.69 39.82-83.07 59.74-136.54 59.74-53.48 0-98.82-19.92-136.38-59.74z" class="fil0"/><path d="M6610.79 1781.14c13.12 67.03 100.87 80.85 157.53 80.85 55.96 0 154.08-19.34 154.08-102.25 0-150.64-283.98-42.84-283.98-159.62 0-56.65 73.24-78.07 122.99-78.07 38.01 0 107.1 4.83 126.44 56.67 4.84 14.49 27.64 10.35 22.8-9-23.49-61.49-96.73-70.48-149.24-70.48-64.27 0-146.48 34.54-146.48 100.88 0 149.24 283.29 38 283.29 159.62 0 62.87-88.44 80.14-129.9 80.14-60.81 0-126.45-20.03-135.43-62.88-2.08-18.66-27.64-13.82-22.1 4.14zm-178.26 44.93c-22.81 10.35-45.61 15.88-69.79 15.2-31.09-2.08-60.81-12.44-85-31.1-44.9-35.82-62.88-84.77-60.79-137.84.68-20.05 4.82-42.04 12.42-60 23.51-57.23 82.92-88.21 141.65-87.53 21.42.7 41.46 4.84 61.51 13.71 45.58 22.12 69.09 63.45 71.84 113.77v60c-2.75 50.33-26.26 91.79-71.84 113.79zm-134.74-312.31c-65.65 25.44-102.97 89.59-105.02 159.27-2.09 80.59 35.23 148.88 109.85 179.28 52.51 21.43 107.78 15.2 151.31-10.36 22.8-15.2 40.08-36.5 50.44-64.14v69.66c0 7.61 4.14 12.45 11.75 12.45 7.6 0 12.44-4.84 12.44-12.45v-330.26c0-7.61-4.84-12.44-12.44-12.44-7.61 0-11.75 4.83-11.75 12.44v69.68c-10.36-27.65-27.64-49.07-50.44-64.15-24.87-14.51-53.19-21.42-82.91-22.12-26.25-.69-50.44 3.46-73.23 13.14zm-187.96 61.49c2.77 3.47 6.22 4.84 11.06 4.14 7.61-.67 11.07-6.9 10.37-13.12 0-2.08-.68-4.14-2.76-6.92-49.06-56.65-105.72-67.01-178.95-51.81-74.63 19.34-118.85 84.3-123.68 161.68-2.78 51.82 10.36 95.34 40.07 131.29 66.32 80.82 203.14 82.9 269.46 0 2.08-2.09 2.78-5.54 2.78-9.68-2.08-6.23-6.22-11.06-13.82-10.37-3.47.68-6.22 2.76-8.31 4.84-55.97 72.55-175.48 69.09-231.45 0-68.41-82.91-31.78-229.39 71.16-257.03 58.74-13.13 112.63-2.08 154.07 46.98zm-372.41-155.47c0-15.19-25.56-15.19-25.56 0v38.7c0 15.2 25.56 15.2 25.56 0v-38.7zm-24.88 431.85c0 16.58 24.19 16.58 24.19 0v-336.49c0-15.9-24.19-15.9-24.19.68v335.81zm-102.26-317.15c15.89 0 15.89-20.04 0-20.04h-86.36v-4.14c0-50.45 13.12-87.75 72.54-87.75 16.59 0 38.69 2.76 50.44 13.12 13.13 10.38 26.25-7.6 13.13-16.59-17.27-13.12-38.7-18.64-64.27-18.64-73.23 0-96.04 51.13-96.04 109.86v4.14h-54.58c-15.21 0-15.88 20.04-.7 20.04h55.28v312.99c0 18.66 24.2 17.99 24.2 0v-312.99h86.36zm-418.71-77.38c-6.22 8.98 6.21 22.79 16.57 11.06l56.66-62.2c10.38-14.5-10.36-26.94-20.03-15.2l-53.2 66.34zm77.38 368.97c-22.8 10.35-45.6 15.88-69.79 15.2-31.09-2.08-60.81-12.44-84.99-31.1-44.91-35.82-62.87-84.77-60.78-137.84.67-20.05 4.81-42.04 12.42-60 23.49-57.23 82.91-88.21 141.63-87.53 21.43.7 41.47 4.84 61.51 13.71 45.6 22.12 69.09 63.45 71.85 113.77v60c-2.76 50.33-26.25 91.79-71.85 113.79zm-134.74-312.31c-65.65 25.44-102.95 89.59-105.02 159.27-2.07 80.59 35.23 148.88 109.86 179.28 52.52 21.43 107.78 15.2 151.3-10.36 22.81-15.2 40.1-36.5 50.45-64.14v69.66c0 7.61 4.14 12.45 11.75 12.45 7.59 0 12.44-4.84 12.44-12.45v-330.26c0-7.61-4.85-12.44-12.44-12.44-7.61 0-11.75 4.83-11.75 12.44v69.68c-10.35-27.65-27.64-49.07-50.45-64.15-24.85-14.51-53.19-21.42-82.91-22.12-26.24-.69-50.42 3.46-73.23 13.14zm-275.7 2.06c0-6.22-5.51-11.74-11.74-11.74-7.6 0-12.44 5.52-12.44 11.74v330.27c0 7.61 4.84 12.44 12.44 12.44 6.23 0 11.74-4.83 11.74-12.44v-159.6c0-83.59 36.63-158.92 125.06-158.92 7.61 0 12.45-4.15 12.45-11.75 0-7.59-4.84-11.74-12.45-11.74-57.34 0-109.86 35.93-125.06 88.43v-76.69zm-143.02 265.32c4.15-4.14 4.85-10.35 4.85-15.88v-123c0-7.6-2.78-13.12-12.45-13.12h-155.46c-13.12 0-13.12 20.72 0 20.72h147.16v115.4c-34.55 50.42-98.11 76.69-158.23 76.01-106.39-2.08-198.28-91.21-195.52-206.61 3.45-94.65 68.4-184.47 164.45-199.68 61.48-9.67 135.41 7.61 177.56 54.59 11.06 11.75 27.64-2.77 16.59-15.89-46.99-51.82-129.2-71.86-197.62-61.49-107.09 17.28-179.64 116.08-183.08 221.79-3.47 130.58 98.79 228.7 216.95 230.08 66.32.7 134.04-29.01 174.8-82.92zm-955.57 0c13.13 67.03 100.88 80.85 157.53 80.85 55.97 0 154.08-19.34 154.08-102.25 0-150.64-283.97-42.84-283.97-159.62 0-56.65 73.24-78.07 122.99-78.07 38 0 107.09 4.83 126.44 56.67 4.83 14.49 27.64 10.35 22.81-9-23.51-61.49-96.74-70.48-149.25-70.48-64.26 0-146.47 34.54-146.47 100.88 0 149.24 283.27 38 283.27 159.62 0 62.87-88.43 80.14-129.9 80.14-60.8 0-126.44-20.03-135.42-62.88-2.08-18.66-27.64-13.82-22.11 4.14zm-284.66-252.17c28.33-7.61 60.79-7.61 88.44-.7 69.09 18.66 109.86 76 111.23 152H3365.4c.69-69.09 40.77-132.66 109.86-151.3zm96.03-22.81c-34.54-8.98-72.54-8.3-104.33 0-74.61 20.72-122.98 87.73-126.44 162.36-2.75 51.83 12.45 94.66 41.47 131.99 31.78 40.76 84.97 60.78 138.88 61.48 45.59.69 91.19-12.43 122.28-41.46 13.14-13.13-3.44-26.95-15.88-17.27-31.78 24.18-70.47 35.93-108.48 35.23-44.91-.68-88.44-18.64-117.46-53.19-20.72-24.18-31.78-52.53-35.24-82.23h310.92c18.67 0 22.11-13.12 21.43-22.8-1.39-89.13-49.75-153.39-127.15-174.11zm-562.42-77.39c-9.67 13.82 8.29 21.42 14.51 11.74 9.68-17.96 21.42-20.04 35.24-18.65 41.45 4.14 93.97 62.87 125.74-2.08 9.69-15.89-11.04-21.41-15.18-9.68-6.22 13.15-13.83 19.37-22.81 20.05-38.7 4.83-93.97-69.1-137.5-1.38zm128.52 100.87c107.1 28.32 145.79 171.37 75.32 255.66-28.35 33.85-72.55 53.19-119.54 53.19-46.3 0-89.83-19.34-118.16-53.19-70.47-84.29-33.17-227.34 73.93-255.66 28.33-7.59 60.81-6.9 88.45 0zm-44.22 332.35c54.58 0 103.64-21.41 137.49-61.48 30.41-36.63 44.22-80.16 41.46-131.99-6.22-73.93-52.52-141.64-127.12-162.36-34.57-8.98-72.56-8.3-104.34 0-74.62 20.72-120.23 88.43-126.44 162.36-2.78 51.83 11.05 95.36 41.45 131.99 33.86 40.07 82.91 61.48 137.5 61.48zm-265.34-286.74c2.78 3.47 6.22 4.84 11.06 4.14 7.61-.67 11.06-6.9 10.36-13.12 0-2.08-.68-4.14-2.75-6.92-42.15-49.75-109.19-67.01-175.51-51.81-74.62 19.34-118.84 84.3-123.68 161.68-2.77 51.82 10.36 95.34 40.08 131.29 29.71 36.6 73.93 56.64 119.54 60.78l-9 27.65 9 11.06c24.17-6.92 56.65 2.06 56.65 26.94 0 22.11-20.04 29.71-42.14 29.71-22.12 0-38.02-7.6-49.07-26.27-7.6-11.73-24.19-.67-16.58 11.06 15.9 26.95 38.7 36.63 66.33 36.63 30.39 0 62.88-15.9 62.88-51.13 0-30.4-28.32-49.75-66.33-45.61l6.91-20.04c49.74-.67 98.81-20.02 131.27-60.78 2.08-2.09 2.77-5.54 2.77-9.68-2.07-6.23-6.22-11.06-13.82-10.37-3.45.68-6.21 2.76-8.29 4.84-55.96 72.55-175.5 69.09-231.47 0-68.39-82.91-30.39-226.64 72.54-254.27 53.22-13.12 113.33.69 149.25 44.22zm-677.12-60.81c0-7.6-4.83-12.44-12.42-12.44-7.61 0-11.76 4.84-11.76 12.44v198.31c0 114.69 106.4 167.21 195.55 147.87 49.73-13.15 98.78-54.59 114.69-112.64v99.49c0 7.61 4.14 12.45 11.74 12.45 7.6 0 12.45-5.53 12.45-11.75v-333.73c0-7.6-4.85-12.44-12.45-12.44s-11.74 4.84-11.74 12.44v165.14c-2.08 72.56-49.75 139.57-120.91 157.53-81.54 21.42-165.15-37.3-165.15-124.36v-198.31zm-134.04-96.61c0-6.21-5.53-11.76-11.75-11.76-7.59 0-12.43 5.55-12.43 11.76v434.48c0 6.22 4.84 11.75 12.43 11.75 6.22 0 11.75-5.53 11.75-11.75v-434.48zm-242.52 111.81c107.09 28.32 145.78 171.37 75.32 255.66-28.35 33.85-72.56 53.19-119.54 53.19-46.3 0-89.83-19.34-118.16-53.19-70.47-84.29-33.17-227.34 73.93-255.66 28.33-7.59 60.8-6.9 88.45 0zm-44.22 332.35c54.58 0 103.63-21.41 137.49-61.48 30.41-36.63 44.22-80.16 41.46-131.99-6.22-73.93-52.52-141.64-127.13-162.36-34.56-8.98-72.55-8.3-104.33 0-74.64 20.72-120.23 88.43-126.44 162.36-2.78 51.83 11.05 95.36 41.45 131.99 33.86 40.07 82.91 61.48 137.5 61.48zm-635.68-97.43c22.13 80.16 129.22 99.5 199.69 99.5 83.61 0 196.92-27.64 196.92-129.2 0-181.04-364.82-42.85-364.82-201.08 0-7.59 1.37-16.57 4.84-23.48 17.96-52.51 89.83-72.55 139.58-76.01 5.51 0 11.04-.68 16.57-.68 58.73 0 144.41 8.98 167.89 73.93 4.84 13.82 26.27 8.98 19.37-7.61-26.26-71.86-121.62-87.06-187.95-87.06-19.35 0-39.39 2.07-58.03 5.54-58.05 12.43-125.08 46.28-125.08 114.7 0 186.54 364.84 43.52 364.84 202.44 0 85.68-105.72 109.17-174.13 109.17-10.36 0-22.11-.69-32.46-2.07-51.83-4.84-129.9-26.27-146.49-83.61-4.15-14.51-24.88-8.28-20.74 5.52z" style="fill:#201e1e;fill-rule:nonzero;stroke:#373435;stroke-width:7.62;stroke-miterlimit:22.9256"/></g></g></svg>