<svg xmlns="http://www.w3.org/2000/svg" xml:space="preserve" width="300.795" height="54.402" style="shape-rendering:geometricPrecision;text-rendering:geometricPrecision;image-rendering:optimizeQuality;fill-rule:evenodd;clip-rule:evenodd" viewBox="0 0 7958.54 1439.38"><defs><style>.fil0{fill:#f60}</style></defs><g id="Camada_x0020_1"><g id="_1825526209008"><path d="M874.06 1065.93V707.27c0-104.59-36.94-194.17-110.79-268.7-73.87-74.11-163.13-111.27-267.8-111.27-85.07 0-149.33 28.31-192.92 84.93v-63.04H116.76v716.74h185.79V707.27c0-53.65 18.82-99.24 56.38-136.98 37.63-37.69 83.12-56.56 136.54-56.56 53.31 0 98.81 18.87 136.44 56.56 37.67 38.22 56.32 83.81 56.32 136.98v358.66h185.83zM1138.8 439.2c-73.98 74.17-110.91 163.48-110.91 268.07 0 104.95 36.93 194.65 110.91 268.75 73.86 74.11 163.05 111.21 267.78 111.21 104.62 0 193.98-37.1 267.9-111.21 73.77-74.1 110.81-163.8 110.81-268.75 0-104.59-37.04-193.9-110.81-268.07-73.92-74.58-163.28-111.9-267.9-111.9-104.73 0-193.92 37.32-267.78 111.9zm131.3 414c-37.63-40.23-56.44-88.9-56.44-145.93 0-56.5 18.81-105.07 56.44-145.29 37.62-40.24 83.11-60.5 136.48-60.5 53.37 0 98.92 20.26 136.5 60.5 37.56 40.22 56.37 88.79 56.37 145.29 0 57.03-18.81 105.7-56.37 145.93-37.58 39.82-83.13 59.74-136.5 59.74-53.37 0-98.86-19.92-136.48-59.74zM2408.05 349.19l-171.62 329.83-156.46-329.83H1874.9l353.08 745.74 389-745.74zM2817.51 439.2c-73.92 74.17-110.92 163.48-110.92 268.07 0 104.95 37 194.65 110.92 268.75 73.91 74.11 163.17 111.21 267.79 111.21 77.3 0 141.67-22.73 192.92-68.16v46.86H3464V349.19h-185.78v46.91c-51.25-45.8-115.62-68.8-192.92-68.8-104.62 0-193.88 37.32-267.79 111.9zm131.36 414c-37.63-40.23-56.44-88.9-56.44-145.93 0-56.5 18.81-105.07 56.44-145.29 37.56-40.24 83.07-60.5 136.43-60.5 53.41 0 98.92 20.26 136.44 60.5 37.61 40.22 56.48 88.79 56.48 145.29v.54c0 56.81-18.87 105.16-56.48 145.39-37.52 39.82-83.03 59.74-136.44 59.74-53.36 0-98.87-19.92-136.43-59.74zM4045.89 439.2c-73.87 74.17-110.85 163.48-110.85 268.07 0 104.95 36.98 194.65 110.85 268.75 73.88 74.11 163.12 111.21 267.74 111.21 66.2 0 128.45-16.59 186.52-49.51 58.03-33.01 104.25-78.28 138.38-135.7l-156.34-93.82c-8.61 15.74-19.23 30.91-32.08 45-37.61 39.82-83.05 59.74-136.48 59.74-53.37 0-98.86-19.92-136.44-59.74-37.61-40.23-56.38-88.9-56.38-145.93 0-56.5 18.77-105.11 56.38-145.29 37.58-40.24 83.07-60.5 136.44-60.5 53.43 0 98.87 20.26 136.48 60.5 12.85 14.14 23.47 29.15 32.08 45l156.34-93.88c-34.13-57.46-80.35-102.63-138.38-135.6-58.07-33.45-120.32-50.2-186.52-50.2-104.62 0-193.86 37.32-267.74 111.9zM5183.9 94.06l-141.72 196.03h127.56l181.23-196.03H5183.9zM4877.54 439.2c-73.87 74.17-110.87 163.48-110.87 268.07 0 104.95 37 194.65 110.87 268.75 73.86 74.11 163.22 111.21 267.89 111.21 104.57 0 193.77-37.1 267.75-111.21 73.91-74.1 110.85-163.8 110.85-268.75 0-104.59-36.94-193.9-110.85-268.07-73.98-74.58-163.18-111.9-267.75-111.9-104.67 0-194.03 37.32-267.89 111.9zm131.36 414c-37.52-40.23-56.54-88.9-56.54-145.93 0-56.5 19.02-105.11 56.54-145.29 37.56-40.24 83.05-60.5 136.53-60.5 53.32 0 98.76 20.26 136.39 60.5 37.56 40.18 56.37 88.79 56.37 145.29 0 57.03-18.81 105.7-56.37 145.93-37.63 39.82-83.07 59.74-136.39 59.74-53.48 0-98.97-19.92-136.53-59.74zM5677.84 1280.73h185.83v-261.66c51.21 45.43 115.52 68.16 192.88 68.16 104.62 0 193.92-37.1 267.73-111.21 73.92-74.1 110.92-163.8 110.92-268.75 0-105.11-37-194.59-110.92-268.7-73.81-74.11-163.11-111.27-267.73-111.27-77.36 0-141.67 22.75-192.88 68.22v-46.33h-185.83v931.54zM5919.9 853.2c-37.52-40.23-56.23-88.58-56.23-145.39v-1.18c0-56.61 18.71-104.8 56.23-144.65 37.67-40.24 83.18-60.5 136.65-60.5 53.36 0 98.91 20.26 136.43 60.5 37.67 40.18 56.32 88.79 56.32 145.29 0 57.03-18.65 105.7-56.32 145.93-37.52 39.82-83.07 59.74-136.43 59.74-53.47 0-98.98-19.92-136.65-59.74zM6794.61 201.32v-2.5c-.3-26.07-9.7-48.29-28.22-66.91-18.51-18.53-40.77-27.96-66.65-28.26h-2.49c-25.98.3-48.14 9.73-66.71 28.26-18.71 18.92-28.05 41.55-28.05 68.16s9.34 49.3 28.05 68.13c18.87 18.92 41.43 28.29 67.96 28.29 26.42 0 49.08-9.37 67.89-28.29 18.52-18.53 27.92-40.81 28.22-66.88zm-189.07 864.5h185.85V349.15h-185.85v716.67zM7705.67 1065.82V349.19h-185.73v46.91c-51.21-45.8-115.57-68.8-192.91-68.8-104.63 0-193.88 37.32-267.74 111.9-73.93 74.17-110.87 163.48-110.87 268.07 0 104.95 36.94 194.65 110.87 268.75 73.86 74.11 163.11 111.21 267.74 111.21 77.34 0 141.7-22.73 192.91-68.16v46.75h185.73zM7190.65 853.2c-37.69-40.23-56.44-88.9-56.44-145.93 0-56.5 18.75-105.11 56.44-145.29 37.56-40.24 82.9-60.5 136.38-60.5 53.47 0 98.85 20.26 136.54 60.5 37.56 40.18 56.37 88.79 56.37 145.29v.54c0 56.81-18.81 105.16-56.37 145.39-37.69 39.82-83.07 59.74-136.54 59.74-53.48 0-98.82-19.92-136.38-59.74z" class="fil0"/></g></g></svg>