<?xml version="1.0" encoding="UTF-8"?>
<!DOCTYPE svg PUBLIC "-//W3C//DTD SVG 1.1//EN" "http://www.w3.org/Graphics/SVG/1.1/DTD/svg11.dtd">
<!-- Creator: CorelDRAW (Versão OEM) -->
<svg xmlns="http://www.w3.org/2000/svg" xml:space="preserve" width="210mm" height="297mm" version="1.1" style="shape-rendering:geometricPrecision; text-rendering:geometricPrecision; image-rendering:optimizeQuality; fill-rule:evenodd; clip-rule:evenodd"
viewBox="0 0 21000 29700"
 xmlns:xlink="http://www.w3.org/1999/xlink"
 xmlns:xodm="http://www.corel.com/coreldraw/odm/2003">
 <defs>
  <style type="text/css">
   <![CDATA[
    .fil0 {fill:#FF6600}
   ]]>
  </style>
 </defs>
 <g id="Camada_x0020_1">
  <metadata id="CorelCorpID_0Corel-Layer"/>
  <g id="_1861749820240">
   <path class="fil0" d="M1015.94 1123.89l0 -358.66c0,-104.59 -36.94,-194.17 -110.79,-268.7l0 0c-73.87,-74.11 -163.13,-111.27 -267.8,-111.27l0 0c-85.07,0 -149.33,28.31 -192.92,84.93l0 0 0 -63.04 -185.79 0 0 716.74 185.79 0 0 -358.66c0,-53.65 18.82,-99.24 56.38,-136.98l0 0c37.63,-37.69 83.12,-56.56 136.54,-56.56l0 0c53.31,0 98.81,18.87 136.44,56.56l0 0c37.67,38.22 56.32,83.81 56.32,136.98l0 0 0 358.66 185.83 0z"/>
   <path class="fil0" d="M1280.68 497.16c-73.98,74.17 -110.91,163.48 -110.91,268.07 0,104.95 36.93,194.65 110.91,268.75l0 0c73.86,74.11 163.05,111.21 267.78,111.21l0 0c104.62,0 193.98,-37.1 267.9,-111.21l0 0c73.77,-74.1 110.81,-163.8 110.81,-268.75l0 0c0,-104.59 -37.04,-193.9 -110.81,-268.07l0 0c-73.92,-74.58 -163.28,-111.9 -267.9,-111.9l0 0c-104.73,0 -193.92,37.32 -267.78,111.9zm131.3 414c-37.63,-40.23 -56.44,-88.9 -56.44,-145.93l0 0c0,-56.5 18.81,-105.07 56.44,-145.29l0 0c37.62,-40.24 83.11,-60.5 136.48,-60.5l0 0c53.37,0 98.92,20.26 136.5,60.5l0 0c37.56,40.22 56.37,88.79 56.37,145.29l0 0c0,57.03 -18.81,105.7 -56.37,145.93l0 0c-37.58,39.82 -83.13,59.74 -136.5,59.74l0 0c-53.37,0 -98.86,-19.92 -136.48,-59.74l0 0z"/>
   <polygon class="fil0" points="2549.93,407.15 2378.31,736.98 2221.85,407.15 2016.78,407.15 2369.86,1152.89 2758.86,407.15 "/>
   <path class="fil0" d="M2959.39 497.16c-73.92,74.17 -110.92,163.48 -110.92,268.07 0,104.95 37,194.65 110.92,268.75l0 0c73.91,74.11 163.17,111.21 267.79,111.21l0 0c77.3,0 141.67,-22.73 192.92,-68.16l0 0 0 46.86 185.78 0 0 -716.74 -185.78 0 0 46.91c-51.25,-45.8 -115.62,-68.8 -192.92,-68.8l0 0c-104.62,0 -193.88,37.32 -267.79,111.9zm131.36 414c-37.63,-40.23 -56.44,-88.9 -56.44,-145.93l0 0c0,-56.5 18.81,-105.07 56.44,-145.29l0 0c37.56,-40.24 83.07,-60.5 136.43,-60.5l0 0c53.41,0 98.92,20.26 136.44,60.5l0 0c37.61,40.22 56.48,88.79 56.48,145.29l0 0 0 0.54c0,56.81 -18.87,105.16 -56.48,145.39l0 0c-37.52,39.82 -83.03,59.74 -136.44,59.74l0 0c-53.36,0 -98.87,-19.92 -136.43,-59.74l0 0z"/>
   <path class="fil0" d="M4187.77 497.16c-73.87,74.17 -110.85,163.48 -110.85,268.07 0,104.95 36.98,194.65 110.85,268.75l0 0c73.88,74.11 163.12,111.21 267.74,111.21l0 0c66.2,0 128.45,-16.59 186.52,-49.51l0 0c58.03,-33.01 104.25,-78.28 138.38,-135.7l0 0 -156.34 -93.82c-8.61,15.74 -19.23,30.91 -32.08,45l0 0c-37.61,39.82 -83.05,59.74 -136.48,59.74l0 0c-53.37,0 -98.86,-19.92 -136.44,-59.74l0 0c-37.61,-40.23 -56.38,-88.9 -56.38,-145.93l0 0c0,-56.5 18.77,-105.11 56.38,-145.29l0 0c37.58,-40.24 83.07,-60.5 136.44,-60.5l0 0c53.43,0 98.87,20.26 136.48,60.5l0 0c12.85,14.14 23.47,29.15 32.08,45l0 0 156.34 -93.88c-34.13,-57.46 -80.35,-102.63 -138.38,-135.6l0 0c-58.07,-33.45 -120.32,-50.2 -186.52,-50.2l0 0c-104.62,0 -193.86,37.32 -267.74,111.9l0 0z"/>
   <path class="fil0" d="M5325.78 152.02l-141.72 196.03 127.56 0 181.23 -196.03 -167.07 0zm-306.36 345.14c-73.87,74.17 -110.87,163.48 -110.87,268.07 0,104.95 37,194.65 110.87,268.75l0 0c73.86,74.11 163.22,111.21 267.89,111.21l0 0c104.57,0 193.77,-37.1 267.75,-111.21l0 0c73.91,-74.1 110.85,-163.8 110.85,-268.75l0 0c0,-104.59 -36.94,-193.9 -110.85,-268.07l0 0c-73.98,-74.58 -163.18,-111.9 -267.75,-111.9l0 0c-104.67,0 -194.03,37.32 -267.89,111.9zm131.36 414c-37.52,-40.23 -56.54,-88.9 -56.54,-145.93l0 0c0,-56.5 19.02,-105.11 56.54,-145.29l0 0c37.56,-40.24 83.05,-60.5 136.53,-60.5l0 0c53.32,0 98.76,20.26 136.39,60.5l0 0c37.56,40.18 56.37,88.79 56.37,145.29l0 0c0,57.03 -18.81,105.7 -56.37,145.93l0 0c-37.63,39.82 -83.07,59.74 -136.39,59.74l0 0c-53.48,0 -98.97,-19.92 -136.53,-59.74l0 0z"/>
   <path class="fil0" d="M5819.72 1338.69l185.83 0 0 -261.66c51.21,45.43 115.52,68.16 192.88,68.16l0 0c104.62,0 193.92,-37.1 267.73,-111.21l0 0c73.92,-74.1 110.92,-163.8 110.92,-268.75l0 0c0,-105.11 -37,-194.59 -110.92,-268.7l0 0c-73.81,-74.11 -163.11,-111.27 -267.73,-111.27l0 0c-77.36,0 -141.67,22.75 -192.88,68.22l0 -46.33 -185.83 0 0 931.54zm242.06 -427.53c-37.52,-40.23 -56.23,-88.58 -56.23,-145.39l0 0 0 -1.18c0,-56.61 18.71,-104.8 56.23,-144.65l0 0c37.67,-40.24 83.18,-60.5 136.65,-60.5l0 0c53.36,0 98.91,20.26 136.43,60.5l0 0c37.67,40.18 56.32,88.79 56.32,145.29l0 0c0,57.03 -18.65,105.7 -56.32,145.93l0 0c-37.52,39.82 -83.07,59.74 -136.43,59.74l0 0c-53.47,0 -98.98,-19.92 -136.65,-59.74l0 0z"/>
   <path class="fil0" d="M6936.49 259.28l0 -1.25 0 -1.25c-0.3,-26.07 -9.7,-48.29 -28.22,-66.91l0 0c-18.51,-18.53 -40.77,-27.96 -66.65,-28.26l-1.24 0 -1.25 0c-25.98,0.3 -48.14,9.73 -66.71,28.26 -18.71,18.92 -28.05,41.55 -28.05,68.16l0 0c0,26.61 9.34,49.3 28.05,68.13l0 0c18.87,18.92 41.43,28.29 67.96,28.29l0 0c26.42,0 49.08,-9.37 67.89,-28.29l0 0c18.52,-18.53 27.92,-40.81 28.22,-66.88zm-189.07 864.5l185.85 0 0 -716.67 -185.85 0 0 716.67z"/>
   <path class="fil0" d="M7847.55 1123.78l0 -716.63 -185.73 0 0 46.91c-51.21,-45.8 -115.57,-68.8 -192.91,-68.8l0 0c-104.63,0 -193.88,37.32 -267.74,111.9 -73.93,74.17 -110.87,163.48 -110.87,268.07l0 0c0,104.95 36.94,194.65 110.87,268.75l0 0c73.86,74.11 163.11,111.21 267.74,111.21l0 0c77.34,0 141.7,-22.73 192.91,-68.16l0 0 0 46.75 185.73 0zm-515.02 -212.62c-37.69,-40.23 -56.44,-88.9 -56.44,-145.93l0 0c0,-56.5 18.75,-105.11 56.44,-145.29l0 0c37.56,-40.24 82.9,-60.5 136.38,-60.5l0 0c53.47,0 98.85,20.26 136.54,60.5l0 0c37.56,40.18 56.37,88.79 56.37,145.29l0 0 0 0.54c0,56.81 -18.81,105.16 -56.37,145.39l0 0c-37.69,39.82 -83.07,59.74 -136.54,59.74l0 0c-53.48,0 -98.82,-19.92 -136.38,-59.74l0 0z"/>
  </g>
 </g>
</svg>
